<?xml version="1.0" encoding="UTF-8" standalone="no"?>
<!-- Created with Inkscape (http://www.inkscape.org/) -->

<svg
   width="64"
   height="64"
   viewBox="0 0 16.933333 16.933333"
   version="1.1"
   id="svg5"
   xml:space="preserve"
   inkscape:version="1.2.2 (b0a8486541, 2022-12-01)"
   sodipodi:docname="kAI.svg"
   inkscape:export-filename="kAI.png"
   inkscape:export-xdpi="96"
   inkscape:export-ydpi="96"
   xmlns:inkscape="http://www.inkscape.org/namespaces/inkscape"
   xmlns:sodipodi="http://sodipodi.sourceforge.net/DTD/sodipodi-0.dtd"
   xmlns="http://www.w3.org/2000/svg"
   xmlns:svg="http://www.w3.org/2000/svg"><sodipodi:namedview
     id="namedview7"
     pagecolor="#ffffff"
     bordercolor="#000000"
     borderopacity="0.25"
     inkscape:showpageshadow="2"
     inkscape:pageopacity="0.0"
     inkscape:pagecheckerboard="0"
     inkscape:deskcolor="#d1d1d1"
     inkscape:document-units="mm"
     showgrid="true"
     inkscape:zoom="6.7277216"
     inkscape:cx="71.569549"
     inkscape:cy="10.701989"
     inkscape:window-width="2560"
     inkscape:window-height="1043"
     inkscape:window-x="0"
     inkscape:window-y="0"
     inkscape:window-maximized="1"
     inkscape:current-layer="layer1"><inkscape:grid
       type="xygrid"
       id="grid9" /></sodipodi:namedview><defs
     id="defs2" /><g
     inkscape:label="Layer 1"
     inkscape:groupmode="layer"
     id="layer1"><path
       style="fill:#000000;stroke:#ffffff;stroke-width:0.1;stroke-dasharray:none;stroke-opacity:1"
       d="m 11.557887,16.532492 c -0.409577,-0.06897 -0.917693,-0.340754 -1.16621,-0.6238 -0.306867,-0.349502 -0.6449289,-1.010841 -0.9602829,-1.878567 -0.105327,-0.289817 -0.500466,-1.833563 -0.853723,-3.335358 -0.05437,-0.231142 -0.109255,-0.420258 -0.121967,-0.420258 -0.01271,0 -0.197413,0.342018 -0.410447,0.76004 -0.377634,0.741007 -2.442204,4.767178 -2.627301,5.123567 l -0.09288,0.178833 -1.010406,0.0095 c -0.555724,0.0052 -1.010407,-1.15e-4 -1.010407,-0.01186 0,-0.01175 0.247216,-0.498873 0.54937,-1.082497 0.302153,-0.583629 1.04929,-2.05098 1.660304,-3.260786 0.611014,-1.209805 1.325472,-2.6193516 1.587685,-3.1323242 0.262213,-0.5129722 0.523375,-1.0307869 0.580359,-1.1506983 L 7.7855891,7.490262 7.3288281,5.6723318 C 6.8431481,3.7393029 6.7302351,3.3492022 6.5510591,2.9852446 6.2905641,2.4561042 5.8298151,2.1932802 5.1600671,2.1917833 c -0.853858,-0.00191 -1.441449,0.4091381 -1.712958,1.198292 -0.06103,0.1773746 -0.08807,0.3035397 -0.162799,0.7594012 -0.01886,0.1150308 -0.02114,0.1162415 -0.219264,0.1162415 h -0.200208 l 0.0239,-0.3666078 c 0.09806,-1.5040545 0.580743,-2.6828613 1.291798,-3.15483292 0.654756,-0.4346022 1.608635,-0.3911182 2.19356,0.099997 0.349779,0.29368132 0.687325,0.84878242 0.897382,1.47576002 0.09163,0.2735023 0.661627,2.5524604 0.933922,3.7340142 0.04307,0.1868806 0.0886,0.3510511 0.101191,0.3648234 0.01259,0.013772 0.413438,-0.7426915 0.890778,-1.6810307 C 9.6747101,3.799502 10.33684,2.5006358 10.66877,1.8514718 l 0.603509,-1.18029812 1.0412,-0.00948 c 0.57266,-0.00521 1.0412,-0.00367 1.0412,0.00344 0,0.0071 -0.218912,0.43788892 -0.48647,0.95729702 C 12.600651,2.1418386 11.986942,3.3393678 11.504412,4.2836063 11.021882,5.2278398 10.373696,6.4912952 10.064,7.0912801 9.7543021,7.691265 9.3876831,8.4083741 9.2492911,8.6848557 l -0.251623,0.5026939 0.439601,1.7327194 c 0.477151,1.880723 0.5706949,2.212281 0.7601139,2.69415 0.282882,0.719634 0.526749,0.994989 1.064949,1.202457 0.183502,0.07074 0.279387,0.08265 0.661682,0.08223 0.389181,-4.3e-4 0.48155,-0.01257 0.713219,-0.09377 0.631622,-0.221386 0.988959,-0.644855 1.182408,-1.401235 0.03935,-0.153837 0.07154,-0.326474 0.07154,-0.383635 0,-0.220693 0.08494,-0.273589 0.353195,-0.219939 l 0.111771,0.02235 -0.0011,0.344253 c -0.0037,1.144552 -0.38822,2.15033 -1.088871,2.847917 -0.456446,0.45445 -1.037371,0.630413 -1.708282,0.517442 z"
       id="path1680" /></g></svg>
